<svg width="48" height="48" viewBox="0 0 48 48" fill="none" xmlns="http://www.w3.org/2000/svg">
<rect width="48" height="48" rx="24" fill="#005BFF"/>
<path fill-rule="evenodd" clip-rule="evenodd" d="M10.099 20.6894C9.27468 20.5993 8.4437 20.7764 7.72028 21.1965C6.99686 21.6166 6.41651 22.259 6.059 23.0355C5.70149 23.8119 5.58438 24.6842 5.72376 25.5326C5.86313 26.381 6.25216 27.1637 6.83736 27.7731C7.42256 28.3826 8.1752 28.789 8.99185 28.9363C9.80849 29.0836 10.649 28.9647 11.398 28.5959C12.1469 28.2272 12.7674 27.6266 13.1742 26.8768C13.5811 26.127 13.7543 25.2647 13.67 24.4086C13.5772 23.4569 13.1715 22.5675 12.5211 21.8901C11.8707 21.2127 11.0153 20.7887 10.099 20.6894ZM9.96899 27.0366C9.52565 27.0984 9.07481 27.0143 8.67984 26.7963C8.28488 26.5783 7.96564 26.2373 7.76699 25.8211C7.56834 25.405 7.50027 24.9347 7.57234 24.4763C7.64442 24.018 7.85302 23.5946 8.16882 23.2657C8.48463 22.9367 8.89176 22.7188 9.333 22.6426C9.77425 22.5663 10.2274 22.6355 10.6288 22.8404C11.0302 23.0454 11.3597 23.3758 11.5709 23.7852C11.7821 24.1946 11.8645 24.6624 11.8064 25.1229C11.7454 25.6073 11.5324 26.0573 11.2002 26.4032C10.8681 26.7492 10.4353 26.9718 9.96899 27.0366ZM15.8159 20.8542C15.6767 20.8546 15.5394 20.8871 15.4139 20.9495C15.2884 21.0119 15.1778 21.1026 15.0903 21.2149C15.0028 21.3272 14.9405 21.4584 14.908 21.5989C14.8754 21.7393 14.8734 21.8856 14.9022 22.0269C14.9902 22.4849 15.4022 22.7978 15.851 22.7978H18.4556L14.4023 28.3671C14.3723 28.4082 14.354 28.4572 14.3493 28.5085C14.3446 28.5599 14.3538 28.6116 14.3758 28.6578C14.3979 28.704 14.4319 28.7429 14.474 28.7702C14.5161 28.7975 14.5648 28.8121 14.6144 28.8123H20.9724C21.4209 28.8123 21.8332 28.4994 21.9213 28.0414C21.95 27.9 21.9481 27.7538 21.9155 27.6134C21.883 27.4729 21.8208 27.3417 21.7333 27.2294C21.6458 27.1171 21.5353 27.0264 21.4099 26.964C21.2844 26.9015 21.1471 26.8689 21.008 26.8685H17.8345L21.8847 21.3035C21.9149 21.262 21.9335 21.2126 21.9382 21.1607C21.9429 21.1089 21.9336 21.0567 21.9113 21.0101C21.8891 20.9634 21.8547 20.9241 21.8122 20.8966C21.7696 20.8691 21.7205 20.8544 21.6703 20.8542H15.8159ZM41.222 20.8766C41.0115 20.9286 40.8244 21.0536 40.6916 21.231C40.5588 21.4083 40.4883 21.6274 40.4917 21.8521V25.0881L35.4415 20.9153C35.4019 20.8827 35.3542 20.8623 35.3039 20.8566C35.2537 20.8508 35.2029 20.8599 35.1574 20.8828C35.1118 20.9057 35.0735 20.9415 35.0467 20.986C35.0199 21.0305 35.0058 21.082 35.0059 21.1345V27.8162C35.0025 28.0408 35.073 28.2599 35.2058 28.4373C35.3386 28.6146 35.5257 28.7396 35.7362 28.7916C35.8729 28.8228 36.0146 28.8218 36.1508 28.7886C36.2871 28.7553 36.4144 28.6908 36.5234 28.5997C36.6324 28.5085 36.7204 28.3932 36.7807 28.2621C36.8411 28.1309 36.8723 27.9874 36.8721 27.8421V24.5781L41.9224 28.7509C41.962 28.7835 42.0097 28.8039 42.0599 28.8096C42.1101 28.8154 42.1609 28.8063 42.2064 28.7834C42.2519 28.7605 42.2902 28.7248 42.317 28.6803C42.3438 28.6358 42.3579 28.5843 42.3578 28.5318V21.8258C42.358 21.6805 42.3267 21.537 42.2663 21.406C42.206 21.2749 42.118 21.1596 42.009 21.0685C41.9 20.9774 41.7727 20.9129 41.6365 20.8797C41.5003 20.8465 41.3586 20.8454 41.222 20.8766ZM28.0725 22.6118C30.2086 22.6118 31.8047 23.7838 31.8047 24.8323C31.8047 25.8807 30.2086 27.0527 28.0725 27.0527C25.9364 27.0527 24.3403 25.8807 24.3403 24.8323C24.3403 23.7838 25.9364 22.6118 28.0725 22.6118ZM28.0725 20.6683C24.9806 20.6683 22.4741 22.5326 22.4741 24.8323C22.4741 27.132 24.9806 28.9963 28.0725 28.9963C31.1644 28.9963 33.6708 27.132 33.6708 24.8323C33.6708 22.5326 31.1644 20.6683 28.0725 20.6683Z" fill="white"/>
</svg>
